<svg xmlns="http://www.w3.org/2000/svg" width="960" height="560" viewBox="0 0 960 560" role="img" aria-label="SLA attainment by scenario chart">
  <rect width="960" height="560" fill="white"/>
  <text x="64" y="54" font-family="Arial" font-size="24" font-weight="700" fill="#111827">SLA attainment separates stable and stressed scenarios</text>
  <text x="64" y="84" font-family="Arial" font-size="14" fill="#4b5563">Share of completed orders under the configured SLA threshold.</text>
  <line x1="90" y1="460" x2="890" y2="460" stroke="#374151"/>
  <line x1="90" y1="120" x2="90" y2="460" stroke="#374151"/>
  <g font-family="Arial" font-size="12" fill="#6b7280">
    <text x="55" y="464">0%</text><text x="48" y="396">20%</text><text x="48" y="328">40%</text><text x="48" y="260">60%</text><text x="48" y="192">80%</text><text x="42" y="124">100%</text>
    <line x1="90" y1="392" x2="890" y2="392" stroke="#e5e7eb"/><line x1="90" y1="324" x2="890" y2="324" stroke="#e5e7eb"/><line x1="90" y1="256" x2="890" y2="256" stroke="#e5e7eb"/><line x1="90" y1="188" x2="890" y2="188" stroke="#e5e7eb"/><line x1="90" y1="120" x2="890" y2="120" stroke="#e5e7eb"/>
  </g>
  <g fill="#2563eb">
    <rect x="115" y="167" width="70" height="293"/><rect x="220" y="169" width="70" height="291"/><rect x="325" y="147" width="70" height="313"/><rect x="430" y="226" width="70" height="234"/><rect x="535" y="286" width="70" height="174"/><rect x="640" y="358" width="70" height="102"/><rect x="745" y="419" width="70" height="41"/>
  </g>
  <g font-family="Arial" font-size="11" fill="#374151" transform="rotate(30)">
    <text x="332" y="355">baseline</text><text x="423" y="299">fewer_robots</text><text x="522" y="242">more_robots</text><text x="646" y="191">higher_failure_rate</text><text x="733" y="135">demand_plus_25pct</text><text x="829" y="78">demand_plus_50pct</text><text x="932" y="20">more_stations</text>
  </g>
  <text x="330" y="525" font-family="Arial" font-size="14" fill="#374151">Operating scenario</text>
  <text x="18" y="325" transform="rotate(-90 18 325)" font-family="Arial" font-size="14" fill="#374151">SLA attainment</text>
</svg>
